<?xml version="1.0" encoding="utf-8"?>
<!-- Generator: Adobe Illustrator 23.0.4, SVG Export Plug-In . SVG Version: 6.00 Build 0)  -->
<svg version="1.1" id="Layer_1" xmlns="http://www.w3.org/2000/svg" xmlns:xlink="http://www.w3.org/1999/xlink" x="0px" y="0px"
	 viewBox="0 0 1024 1024" style="enable-background:new 0 0 1024 1024;" xml:space="preserve">
<style type="text/css">
	.st0{fill:#8D68BA;}
	.st1{clip-path:url(#SVGID_2_);fill:#F18527;}
</style>
<path class="st0" d="M389.7,483.2c0.6-20.9-15.8-38.6-36.7-39.4c-121.1-8-239.6,36-325.7,121.1c-14.8,14.8-14.8,38.9,0.1,53.9
	c14.9,14.9,39,15,53.9,0.1c71.1-70.3,169.2-106.5,269.3-99.2C371.5,520.5,389,504.1,389.7,483.2z M539.7,882.4
	c18.9-39,31.5-80.8,37.4-123.8c8-63.6,4.7-128.1-9.7-190.7c98.9,22.1,283.9,36.9,428.9-108.1c14.8-14.8,14.8-38.9-0.1-53.9
	c-14.9-14.9-39-15-53.9-0.1c-145,145-343.3,95.5-400.7,76.7c-12.3-40.1-19.7-81.5-21.9-123.4l72.6,72.6c14.9,14.9,39,15,53.9,0.1
	S661,393,646,378.1L525.9,257.9c5.6-27.9,14.6-55,26.7-80.7l228.1,228.1c14.9,14.9,39,15,53.9,0.1s14.8-38.9-0.1-53.9L593.1,110.3
	c7.8-10,16.2-19.5,25.2-28.5c14.8-14.8,14.8-38.9-0.1-53.9c-14.9-14.9-39-15-53.9-0.1C361,231.1,471.7,514.7,476.6,526.5
	c15.9,44.9,25.1,91.8,27.6,139.3l-72.9-72.9c-14.9-14.9-39-15-53.9-0.1c-14.8,14.8-14.8,38.9,0.1,53.9l119.6,119.6
	c-5.5,27.9-14.5,55-26.7,80.7L242.8,619.3c-14.9-14.9-39-15-53.9-0.1c-14.8,14.8-14.8,38.9,0.1,53.9l241.4,241.4
	c-7.8,10-16.3,19.5-25.2,28.5c-14.8,14.8-14.8,38.9,0.1,53.9s39,15,53.9,0.1c19.9-19.7,37.6-41.4,52.9-64.7
	C522.7,916.3,531.9,899.7,539.7,882.4z"/>
<g>
	<defs>
		
			<rect id="SVGID_1_" x="170.3" y="307.4" transform="matrix(0.7071 0.7071 -0.7071 0.7071 496.9046 -205.9914)" width="653.6" height="378.9"/>
	</defs>
	<clipPath id="SVGID_2_">
		<use xlink:href="#SVGID_1_"  style="overflow:visible;"/>
	</clipPath>
	<path class="st1" d="M389.7,483.2c0.6-20.9-15.8-38.6-36.7-39.4c-121.1-8-239.6,36-325.7,121.1c-14.8,14.8-14.8,38.9,0.1,53.9
		c14.9,14.9,39,15,53.9,0.1c71.1-70.3,169.2-106.5,269.3-99.2C371.5,520.5,389,504.1,389.7,483.2z M539.7,882.4
		c18.9-39,31.5-80.8,37.4-123.8c8-63.6,4.7-128.1-9.7-190.7c98.9,22.1,283.9,36.9,428.9-108.1c14.8-14.8,14.8-38.9-0.1-53.9
		c-14.9-14.9-39-15-53.9-0.1c-145,145-343.3,95.5-400.7,76.7c-12.3-40.1-19.7-81.5-21.9-123.4l72.6,72.6c14.9,14.9,39,15,53.9,0.1
		S661,393,646,378.1L525.9,257.9c5.6-27.9,14.6-55,26.7-80.7l228.1,228.1c14.9,14.9,39,15,53.9,0.1s14.8-38.9-0.1-53.9L593.1,110.3
		c7.8-10,16.2-19.5,25.2-28.5c14.8-14.8,14.8-38.9-0.1-53.9c-14.9-14.9-39-15-53.9-0.1C361,231.1,471.7,514.7,476.6,526.5
		c15.9,44.9,25.1,91.8,27.6,139.3l-72.9-72.9c-14.9-14.9-39-15-53.9-0.1c-14.8,14.8-14.8,38.9,0.1,53.9l119.6,119.6
		c-5.5,27.9-14.5,55-26.7,80.7L242.8,619.3c-14.9-14.9-39-15-53.9-0.1c-14.8,14.8-14.8,38.9,0.1,53.9l241.4,241.4
		c-7.8,10-16.3,19.5-25.2,28.5c-14.8,14.8-14.8,38.9,0.1,53.9s39,15,53.9,0.1c19.9-19.7,37.6-41.4,52.9-64.7
		C522.7,916.3,531.9,899.7,539.7,882.4z"/>
</g>
</svg>
